# xmcd CD database file
#
# Track frame offsets:
#	150
#	27819
#	56491
#	88253
#	124650
#	151740
#	177059
#	206284
#	239196
#	260373
#	276582
#	304721
#
# Disc length: 4409 seconds
#
# Revision: 3
# Processed by: cddbd v1.5.2PL0 Copyright (c) Steve Scherf et al.
# Submitted via: CDex 1.70beta2
#
DISCID=a111370c
DTITLE=Various Artist - Café Del Mar  Vol. 02
DYEAR=1995
DGENRE=Jazz
TTITLE0=Silent Poets - Moment Scale
TTITLE1=Psychedelic Research Lab - Tarenah
TTITLE2=D'Note - D'Votion
TTITLE3=A Man Called Adam feat. Eddie Parker - Easter Song
TTITLE4=Paco De Lucia - Entre Dos Aguas
TTITLE5=Marc Antoine - Unity
TTITLE6=José Padilla  - Sabor De Verano
TTITLE7=Salt Tank - Sargasso Sea
TTITLE8=Mark's and Henry's - (The Making Of ...) Jill
TTITLE9=Ramp - Everybody Loves The Sunshine
TTITLE10=Deadbeats - Feel Good
TTITLE11=The Metaluna Mutant - Blinky Blue Eyed Sunrise
EXTD=YEAR: 1995
EXTT0=
EXTT1=
EXTT2=
EXTT3=
EXTT4=
EXTT5=
EXTT6=
EXTT7=
EXTT8=
EXTT9=
EXTT10=
EXTT11=
PLAYORDER=
